# WaveFront *.obj file (generated by Autodesk ATF)

mtllib bike.mtl

g Body1

v 26.000000 20.000000 14.500000
v 34.000000 20.000000 14.500000
v 34.000000 0.000000 14.500000
v 26.000000 0.000000 14.500000
v 2.000000 20.000000 14.500000
v 10.000000 20.000000 14.500000
v 10.000000 0.000000 14.500000
v 2.000000 0.000000 14.500000
v 34.000000 0.000000 2.000000
v 2.000000 0.000000 2.000000
v 10.000000 0.000000 16.500000
v 0.000000 0.000000 16.500000
v 0.000000 0.000000 0.000000
v 36.000000 0.000000 0.000000
v 36.000000 0.000000 16.500000
v 26.000000 0.000000 16.500000
v 10.000000 20.000000 16.500000
v 0.000000 20.000000 16.500000
v 26.000000 20.000000 16.500000
v 36.000000 20.000000 16.500000
v 34.000000 20.000000 2.000000
v 2.000000 20.000000 2.000000
v 36.000000 20.000000 0.000000
v 0.000000 20.000000 0.000000
vt 0.800000 0.000000 0.000000
vt -0.000000 0.000000 0.000000
vt 0.800000 -2.000000 0.000000
vt -0.000000 -2.000000 0.000000
vt 0.800000 0.000000 0.000000
vt -0.000000 0.000000 0.000000
vt 0.800000 -2.000000 0.000000
vt -0.000000 -2.000000 0.000000
vt 2.600000 1.450000 0.000000
vt 3.400000 1.450000 0.000000
vt 2.600000 1.650000 0.000000
vt 3.600000 1.650000 0.000000
vt 3.600000 0.000000 0.000000
vt 3.400000 0.200000 0.000000
vt 0.200000 0.200000 0.000000
vt 0.000000 0.000000 0.000000
vt 0.200000 1.450000 0.000000
vt 0.000000 1.650000 0.000000
vt 1.000000 1.650000 0.000000
vt 1.000000 1.450000 0.000000
vt -0.800000 1.000000 0.000000
vt -1.800000 1.000000 0.000000
vt -0.800000 -1.000000 0.000000
vt -1.800000 -1.000000 0.000000
vt 0.800000 -1.000000 0.000000
vt 1.800000 -1.000000 0.000000
vt 0.800000 1.000000 0.000000
vt 1.800000 1.000000 0.000000
vt -1.250000 0.000000 0.000000
vt -0.000000 0.000000 0.000000
vt -1.250000 2.000000 0.000000
vt 0.000000 2.000000 0.000000
vt -1.200000 -0.000000 0.000000
vt 0.050000 0.000000 0.000000
vt -1.200000 2.000000 0.000000
vt 0.050000 2.000000 0.000000
vt -0.150000 0.000000 0.000000
vt 0.050000 0.000000 0.000000
vt -0.150000 2.000000 0.000000
vt 0.050000 2.000000 0.000000
vt -1.250000 2.000000 0.000000
vt -1.450000 2.000000 0.000000
vt -1.250000 0.000000 0.000000
vt -1.450000 0.000000 0.000000
vt -2.400000 0.000000 0.000000
vt 0.800000 -0.000000 0.000000
vt -2.400000 2.000000 0.000000
vt 0.800000 2.000000 0.000000
vt 1.000000 1.450000 0.000000
vt 1.000000 1.650000 0.000000
vt 0.200000 1.450000 0.000000
vt 0.000000 1.650000 0.000000
vt 0.000000 0.000000 0.000000
vt 0.200000 0.200000 0.000000
vt 3.600000 0.000000 0.000000
vt 3.400000 0.200000 0.000000
vt 3.400000 1.450000 0.000000
vt 3.600000 1.650000 0.000000
vt 2.600000 1.650000 0.000000
vt 2.600000 1.450000 0.000000
vt 0.000000 0.000000 0.000000
vt 2.000000 0.000000 0.000000
vt 0.000000 1.650000 0.000000
vt 2.000000 1.650000 0.000000
vt 0.000000 0.000000 0.000000
vt 2.000000 0.000000 0.000000
vt 0.000000 1.650000 0.000000
vt 2.000000 1.650000 0.000000
vt 1.800000 1.000000 0.000000
vt -1.800000 1.000000 0.000000
vt 1.800000 -1.000000 0.000000
vt -1.800000 -1.000000 0.000000
vn 0.000000 0.000000 -0.100000
vn 0.000000 0.000000 -0.100000
vn 0.000000 0.000000 -0.100000
vn 0.000000 0.000000 -0.100000
vn 0.000000 0.000000 -0.100000
vn 0.000000 0.000000 -0.100000
vn 0.000000 0.000000 -0.100000
vn 0.000000 0.000000 -0.100000
vn 0.000000 -0.100000 0.000000
vn 0.000000 -0.100000 0.000000
vn 0.000000 -0.100000 0.000000
vn 0.000000 -0.100000 0.000000
vn 0.000000 -0.100000 0.000000
vn 0.000000 -0.100000 0.000000
vn 0.000000 -0.100000 0.000000
vn 0.000000 -0.100000 0.000000
vn 0.000000 -0.100000 0.000000
vn 0.000000 -0.100000 0.000000
vn 0.000000 -0.100000 0.000000
vn 0.000000 -0.100000 0.000000
vn 0.000000 0.000000 0.100000
vn 0.000000 0.000000 0.100000
vn 0.000000 0.000000 0.100000
vn 0.000000 0.000000 0.100000
vn 0.000000 0.000000 0.100000
vn 0.000000 0.000000 0.100000
vn 0.000000 0.000000 0.100000
vn 0.000000 0.000000 0.100000
vn -0.100000 0.000000 0.000000
vn -0.100000 0.000000 0.000000
vn -0.100000 0.000000 0.000000
vn -0.100000 0.000000 0.000000
vn 0.100000 0.000000 0.000000
vn 0.100000 0.000000 0.000000
vn 0.100000 0.000000 0.000000
vn 0.100000 0.000000 0.000000
vn 0.100000 0.000000 0.000000
vn 0.100000 0.000000 0.000000
vn 0.100000 0.000000 0.000000
vn 0.100000 0.000000 0.000000
vn -0.100000 0.000000 0.000000
vn -0.100000 0.000000 0.000000
vn -0.100000 0.000000 0.000000
vn -0.100000 0.000000 0.000000
vn 0.000000 0.000000 0.100000
vn 0.000000 0.000000 0.100000
vn 0.000000 0.000000 0.100000
vn 0.000000 0.000000 0.100000
vn 0.000000 0.100000 0.000000
vn 0.000000 0.100000 0.000000
vn 0.000000 0.100000 0.000000
vn 0.000000 0.100000 0.000000
vn 0.000000 0.100000 0.000000
vn 0.000000 0.100000 0.000000
vn 0.000000 0.100000 0.000000
vn 0.000000 0.100000 0.000000
vn 0.000000 0.100000 0.000000
vn 0.000000 0.100000 0.000000
vn 0.000000 0.100000 0.000000
vn 0.000000 0.100000 0.000000
vn 0.100000 0.000000 0.000000
vn 0.100000 0.000000 0.000000
vn 0.100000 0.000000 0.000000
vn 0.100000 0.000000 0.000000
vn -0.100000 0.000000 0.000000
vn -0.100000 0.000000 0.000000
vn -0.100000 0.000000 0.000000
vn -0.100000 0.000000 0.000000
vn 0.000000 0.000000 -0.100000
vn 0.000000 0.000000 -0.100000
vn 0.000000 0.000000 -0.100000
vn 0.000000 0.000000 -0.100000
usemtl Steel_-_Satin
f 1/1/1 2/2/2 4/3/3
f 4/3/3 2/2/2 3/4/4
f 5/5/5 6/6/6 8/7/7
f 8/7/7 6/6/6 7/8/8
f 4/9/9 3/10/10 16/11/11
f 16/11/11 3/10/10 15/12/12
f 15/12/12 3/10/10 14/13/13
f 14/13/13 3/10/10 9/14/14
f 14/13/13 9/14/14 10/15/15
f 14/13/13 10/15/15 13/16/16
f 13/16/16 10/15/15 8/17/17
f 13/16/16 8/17/17 12/18/18
f 12/18/18 8/17/17 11/19/19
f 11/19/19 8/17/17 7/20/20
f 17/21/21 18/22/22 11/23/23
f 11/23/23 18/22/22 12/24/24
f 16/25/25 15/26/26 19/27/27
f 19/27/27 15/26/26 20/28/28
f 2/29/29 21/30/30 3/31/31
f 3/31/31 21/30/30 9/32/32
f 22/33/33 5/34/34 10/35/35
f 10/35/35 5/34/34 8/36/36
f 6/37/37 17/38/38 7/39/39
f 7/39/39 17/38/38 11/40/40
f 4/41/41 16/42/42 1/43/43
f 1/43/43 16/42/42 19/44/44
f 21/45/45 22/46/46 9/47/47
f 9/47/47 22/46/46 10/48/48
f 1/49/49 19/50/50 2/51/51
f 2/51/51 19/50/50 20/52/52
f 2/51/51 20/52/52 23/53/53
f 2/51/51 23/53/53 21/54/54
f 21/54/54 23/53/53 24/55/55
f 21/54/54 24/55/55 22/56/56
f 22/56/56 24/55/55 5/57/57
f 5/57/57 24/55/55 18/58/58
f 5/57/57 18/58/58 17/59/59
f 17/59/59 6/60/60 5/57/57
f 14/61/61 23/62/62 15/63/63
f 15/63/63 23/62/62 20/64/64
f 24/65/65 13/66/66 18/67/67
f 18/67/67 13/66/66 12/68/68
f 24/69/69 23/70/70 13/71/71
f 13/71/71 23/70/70 14/72/72
# 24 vertices
# 72 texture params
# 72 normals
# 44 facets

# 1 groups
